<svg width="83" height="41" viewBox="0 0 83 41" fill="none" xmlns="http://www.w3.org/2000/svg">
<path d="M29.9922 1.59375C29.5078 2.34375 28.9219 3.04688 28.2344 3.70312C27.5469 4.35938 26.7969 4.9375 25.9844 5.4375C25.1719 5.9375 24.3125 6.33594 23.4062 6.63281C22.5 6.91406 21.5938 7.05469 20.6875 7.05469L16.0703 7.10156C15.4453 7.85156 14.9844 8.57812 14.6875 9.28125C14.3906 9.98438 14.2422 10.8125 14.2422 11.7656V18.3281H14.9219C15.5469 18.3281 16.3047 18.3438 17.1953 18.375C18.0859 18.3906 18.9844 18.3672 19.8906 18.3047C20.8125 18.2422 21.6875 18.1094 22.5156 17.9062C23.3438 17.6875 24.0156 17.3516 24.5312 16.8984L25.0938 17.5781C24.6094 18.3125 24.0234 18.9297 23.3359 19.4297C22.6484 19.9297 21.8984 20.3438 21.0859 20.6719C20.2734 20.9844 19.4141 21.2188 18.5078 21.375C17.6016 21.5156 16.6953 21.5938 15.7891 21.6094H14.2422V30.5391C14.2422 32.6172 13.7969 34.4609 12.9062 36.0703C12.0156 37.6953 10.7188 39.0938 9.01562 40.2656L8.19531 39.3516C8.46094 39.0547 8.67188 38.7188 8.82812 38.3438C8.98438 37.9688 9.10156 37.5781 9.17969 37.1719C9.27344 36.7656 9.32812 36.3594 9.34375 35.9531C9.375 35.5312 9.39062 35.1328 9.39062 34.7578V21.6094H4.84375L7.32812 18.3281H9.39062V14.4844C9.39062 13.75 9.53906 13.0391 9.83594 12.3516C10.1484 11.6484 10.5391 10.9844 11.0078 10.3594C11.4766 9.73438 11.9922 9.14844 12.5547 8.60156C13.1172 8.05469 13.6641 7.55469 14.1953 7.10156C13.5391 7.10156 12.9141 7.10156 12.3203 7.10156C11.7422 7.08594 11.1562 7.07812 10.5625 7.07812C9.96875 7.07812 9.35938 7.07812 8.73438 7.07812C8.10938 7.0625 7.42188 7.05469 6.67188 7.05469C6.07812 7.05469 5.54688 7.11719 5.07812 7.24219C4.625 7.35156 4.20312 7.51562 3.8125 7.73438C3.42188 7.95312 3.04688 8.22656 2.6875 8.55469C2.32812 8.88281 1.96094 9.26562 1.58594 9.70312L0.90625 8.97656C1.4375 8.24219 2.07031 7.49219 2.80469 6.72656C3.53906 5.94531 4.32812 5.23437 5.17188 4.59375C6.03125 3.95313 6.92969 3.42969 7.86719 3.02344C8.82031 2.60156 9.78125 2.39062 10.75 2.39062H19.8203C20.4297 2.39062 21.1797 2.38281 22.0703 2.36719C22.9609 2.35156 23.8672 2.30469 24.7891 2.22656C25.7109 2.13281 26.5859 1.99219 27.4141 1.80469C28.2422 1.60156 28.9062 1.32031 29.4062 0.960938L29.9922 1.59375ZM32.3615 36.144C31.7642 36.144 31.2895 36.0107 30.9375 35.744C30.5962 35.4773 30.3455 35.024 30.1855 34.384C30.0255 33.744 29.9455 32.8533 29.9455 31.712C29.9455 30.4853 30.0095 29.4773 30.1375 28.688C30.1695 28.4747 30.2228 28.3253 30.2975 28.24C30.3828 28.144 30.5002 28.096 30.6495 28.096C30.7775 28.096 30.8842 28.1387 30.9695 28.224C31.0655 28.3093 31.1135 28.4267 31.1135 28.576C31.1135 28.736 31.0975 28.944 31.0655 29.2C30.9695 29.968 30.9215 30.9333 30.9215 32.096C30.9215 33.216 31.0335 34.0213 31.2575 34.512C31.4815 35.0027 31.8548 35.248 32.3775 35.248C32.8575 35.248 33.3375 35.1253 33.8175 34.88C34.3082 34.624 34.6548 34.3787 34.8575 34.144C34.9855 33.9947 35.0495 33.7547 35.0495 33.424L35.1135 28.544C35.1135 28.416 35.1615 28.3093 35.2575 28.224C35.3535 28.1387 35.4655 28.096 35.5935 28.096C35.7215 28.096 35.8335 28.1387 35.9295 28.224C36.0255 28.3093 36.0735 28.416 36.0735 28.544V35.6C36.0735 35.728 36.0202 35.8453 35.9135 35.952C35.8068 36.048 35.6842 36.096 35.5455 36.096C35.3748 36.096 35.2362 36.0427 35.1295 35.936C35.0335 35.8293 34.9855 35.696 34.9855 35.536V34.928C34.7508 35.2373 34.3882 35.52 33.8975 35.776C33.4175 36.0213 32.9055 36.144 32.3615 36.144ZM38.8694 36.096C38.7414 36.096 38.624 36.048 38.5174 35.952C38.4107 35.856 38.3574 35.7493 38.3574 35.632V28.592C38.3574 28.4533 38.4054 28.3413 38.5014 28.256C38.608 28.16 38.7307 28.112 38.8694 28.112C39.0187 28.112 39.1414 28.16 39.2374 28.256C39.3334 28.3413 39.3814 28.4533 39.3814 28.592V29.952C39.68 29.4293 40.048 28.9867 40.4854 28.624C40.9334 28.2507 41.456 28.064 42.0534 28.064C42.5227 28.064 42.8587 28.1973 43.0614 28.464C43.2747 28.72 43.3814 29.0293 43.3814 29.392V29.904C43.3814 30.0427 43.3334 30.16 43.2374 30.256C43.1414 30.3413 43.024 30.384 42.8854 30.384C42.7254 30.384 42.608 30.336 42.5334 30.24C42.4587 30.144 42.4214 30.0267 42.4214 29.888V29.52C42.4214 29.2107 42.24 29.056 41.8774 29.056C41.248 29.056 40.5974 29.504 39.9254 30.4C39.7654 30.6133 39.632 30.88 39.5254 31.2C39.4294 31.52 39.3814 31.8187 39.3814 32.096L39.3654 35.632C39.3654 35.7493 39.312 35.856 39.2054 35.952C39.1094 36.048 38.9974 36.096 38.8694 36.096ZM45.2288 36.096C45.0901 36.096 44.9674 36.048 44.8608 35.952C44.7648 35.856 44.7168 35.7493 44.7168 35.632V28.576C44.7168 28.4373 44.7648 28.3253 44.8608 28.24C44.9674 28.144 45.0901 28.096 45.2288 28.096C45.3674 28.096 45.4848 28.144 45.5807 28.24C45.6768 28.3253 45.7248 28.4373 45.7248 28.576V31.104C46.0341 30.144 46.4608 29.408 47.0048 28.896C47.5594 28.3733 48.1834 28.112 48.8768 28.112C49.4634 28.112 49.9274 28.2613 50.2688 28.56C50.6101 28.8587 50.8554 29.3333 51.0048 29.984C51.1541 30.624 51.2288 31.488 51.2288 32.576C51.2288 33.6427 51.2234 34.3413 51.2128 34.672V35.584C51.2128 35.7227 51.1648 35.8453 51.0688 35.952C50.9834 36.048 50.8714 36.096 50.7328 36.096C50.6048 36.096 50.4928 36.048 50.3968 35.952C50.3008 35.8453 50.2528 35.728 50.2528 35.6V34.704C50.2421 34.3733 50.2368 33.6853 50.2368 32.64C50.2368 31.648 50.1834 30.896 50.0768 30.384C49.9808 29.872 49.8261 29.5253 49.6128 29.344C49.4101 29.152 49.1168 29.056 48.7328 29.056C48.3701 29.056 48.0128 29.1893 47.6608 29.456C47.3088 29.7227 46.9994 30.1013 46.7328 30.592C46.3808 31.232 46.1248 31.8347 45.9648 32.4C45.8154 32.9653 45.7354 33.5467 45.7248 34.144L45.7088 35.568C45.7088 35.7173 45.6608 35.8453 45.5648 35.952C45.4794 36.048 45.3674 36.096 45.2288 36.096ZM54.1845 26.848C54.0458 26.848 53.9285 26.8 53.8325 26.704C53.7365 26.608 53.6885 26.4907 53.6885 26.352L53.7045 25.696C53.7045 25.568 53.7578 25.456 53.8645 25.36C53.9712 25.264 54.0885 25.216 54.2165 25.216C54.3445 25.216 54.4565 25.2693 54.5525 25.376C54.6485 25.472 54.6965 25.584 54.6965 25.712L54.6805 26.368C54.6805 26.5067 54.6272 26.624 54.5205 26.72C54.4245 26.8053 54.3125 26.848 54.1845 26.848ZM54.0885 36.096C53.9498 36.096 53.8272 36.048 53.7205 35.952C53.6138 35.8453 53.5605 35.7227 53.5605 35.584L53.6565 28.64C53.6565 28.5013 53.7098 28.3787 53.8165 28.272C53.9232 28.1653 54.0458 28.112 54.1845 28.112C54.3232 28.112 54.4405 28.1653 54.5365 28.272C54.6432 28.368 54.6965 28.4907 54.6965 28.64L54.6005 35.584C54.6005 35.7227 54.5472 35.8453 54.4405 35.952C54.3445 36.048 54.2272 36.096 54.0885 36.096ZM58.0975 36.112C57.9588 36.112 57.8362 36.064 57.7295 35.968C57.6335 35.872 57.5855 35.76 57.5855 35.632V29.104H55.8095C55.6708 29.104 55.5535 29.056 55.4575 28.96C55.3615 28.8533 55.3135 28.7307 55.3135 28.592C55.3135 28.4427 55.3668 28.3253 55.4735 28.24C55.5802 28.144 55.7028 28.096 55.8415 28.096H57.5855V25.904C57.5855 25.7653 57.6335 25.648 57.7295 25.552C57.8362 25.4453 57.9588 25.392 58.0975 25.392C58.2468 25.392 58.3642 25.4453 58.4495 25.552C58.5455 25.648 58.5935 25.7653 58.5935 25.904V28.096H60.3855C60.5348 28.096 60.6575 28.144 60.7535 28.24C60.8495 28.336 60.8975 28.4533 60.8975 28.592C60.8975 28.7307 60.8442 28.8533 60.7375 28.96C60.6415 29.056 60.5242 29.104 60.3855 29.104H58.5935V35.632C58.5935 35.76 58.5402 35.872 58.4335 35.968C58.3375 36.064 58.2255 36.112 58.0975 36.112ZM63.9396 36.144C63.3423 36.144 62.8676 36.0107 62.5156 35.744C62.1743 35.4773 61.9236 35.024 61.7636 34.384C61.6036 33.744 61.5236 32.8533 61.5236 31.712C61.5236 30.4853 61.5876 29.4773 61.7156 28.688C61.7476 28.4747 61.801 28.3253 61.8756 28.24C61.961 28.144 62.0783 28.096 62.2276 28.096C62.3556 28.096 62.4623 28.1387 62.5476 28.224C62.6436 28.3093 62.6916 28.4267 62.6916 28.576C62.6916 28.736 62.6756 28.944 62.6436 29.2C62.5476 29.968 62.4996 30.9333 62.4996 32.096C62.4996 33.216 62.6116 34.0213 62.8356 34.512C63.0596 35.0027 63.433 35.248 63.9556 35.248C64.4356 35.248 64.9156 35.1253 65.3956 34.88C65.8863 34.624 66.233 34.3787 66.4356 34.144C66.5636 33.9947 66.6276 33.7547 66.6276 33.424L66.6916 28.544C66.6916 28.416 66.7396 28.3093 66.8356 28.224C66.9316 28.1387 67.0436 28.096 67.1716 28.096C67.2996 28.096 67.4116 28.1387 67.5076 28.224C67.6036 28.3093 67.6516 28.416 67.6516 28.544V35.6C67.6516 35.728 67.5983 35.8453 67.4916 35.952C67.385 36.048 67.2623 36.096 67.1236 36.096C66.953 36.096 66.8143 36.0427 66.7076 35.936C66.6116 35.8293 66.5636 35.696 66.5636 35.536V34.928C66.329 35.2373 65.9663 35.52 65.4756 35.776C64.9956 36.0213 64.4836 36.144 63.9396 36.144ZM70.4475 36.096C70.3195 36.096 70.2022 36.048 70.0955 35.952C69.9888 35.856 69.9355 35.7493 69.9355 35.632V28.592C69.9355 28.4533 69.9835 28.3413 70.0795 28.256C70.1862 28.16 70.3088 28.112 70.4475 28.112C70.5968 28.112 70.7195 28.16 70.8155 28.256C70.9115 28.3413 70.9595 28.4533 70.9595 28.592V29.952C71.2582 29.4293 71.6262 28.9867 72.0635 28.624C72.5115 28.2507 73.0342 28.064 73.6315 28.064C74.1008 28.064 74.4368 28.1973 74.6395 28.464C74.8528 28.72 74.9595 29.0293 74.9595 29.392V29.904C74.9595 30.0427 74.9115 30.16 74.8155 30.256C74.7195 30.3413 74.6022 30.384 74.4635 30.384C74.3035 30.384 74.1862 30.336 74.1115 30.24C74.0368 30.144 73.9995 30.0267 73.9995 29.888V29.52C73.9995 29.2107 73.8182 29.056 73.4555 29.056C72.8262 29.056 72.1755 29.504 71.5035 30.4C71.3435 30.6133 71.2102 30.88 71.1035 31.2C71.0075 31.52 70.9595 31.8187 70.9595 32.096L70.9435 35.632C70.9435 35.7493 70.8902 35.856 70.7835 35.952C70.6875 36.048 70.5755 36.096 70.4475 36.096ZM79.47 36.096C78.6913 36.096 77.998 35.9253 77.39 35.584C76.782 35.232 76.3127 34.7627 75.982 34.176C75.6513 33.5893 75.486 32.9493 75.486 32.256C75.486 31.5307 75.6353 30.8533 75.934 30.224C76.2433 29.584 76.67 29.072 77.214 28.688C77.758 28.304 78.382 28.112 79.086 28.112C79.726 28.112 80.27 28.2347 80.718 28.48C81.1767 28.7253 81.518 29.0187 81.742 29.36C81.9767 29.7013 82.094 30.0053 82.094 30.272C82.094 30.464 81.966 30.6347 81.71 30.784L76.75 33.616C77.0167 34.128 77.3793 34.5173 77.838 34.784C78.2967 35.04 78.8353 35.168 79.454 35.168C79.7953 35.168 80.1527 35.0827 80.526 34.912C80.91 34.7413 81.214 34.5387 81.438 34.304C81.5127 34.1973 81.6193 34.144 81.758 34.144C81.8967 34.144 82.0087 34.192 82.094 34.288C82.19 34.3733 82.238 34.4853 82.238 34.624C82.238 34.7307 82.1953 34.8373 82.11 34.944C81.822 35.2747 81.4273 35.552 80.926 35.776C80.4353 35.9893 79.95 36.096 79.47 36.096ZM81.102 30.144C80.9527 29.7813 80.718 29.5093 80.398 29.328C80.078 29.1467 79.646 29.056 79.102 29.056C78.59 29.056 78.1313 29.2 77.726 29.488C77.3207 29.7653 77.0007 30.144 76.766 30.624C76.542 31.104 76.4247 31.632 76.414 32.208C76.414 32.4213 76.4247 32.592 76.446 32.72L81.102 30.144Z" fill="#008F82"/>
</svg>
